# File created by Blade
# Date/Time:  Wed Jan 21 18:02:19 2015
# Frame Rate: 120.000 fps
#------------------------------------------------------
:FULLY-SPECIFIED
:DEGREES
1198
root 23.796074 35.624151 -22.840879 -173.456487 -1.269265 -179.240652
Spine -14.751729 3.279695 -4.511448
Head 7.156940 -2.790184 5.296149
LeftShoulder -5.154849 -27.365166 7.855086
LeftArm 7.356674 19.674254 -21.266529
LeftForeArm 4.734864 -0.000000 2.003134
LeftHand -3.353913 -0.000000 -5.619856
LeftHandThumb1 -26.253704 0.000000 33.147579
RightShoulder -8.887764 -12.088390 1.331792
RightArm 15.367230 9.817240 28.502287
RightForeArm -32.276600 0.000000 7.970939
RightHand -0.319076 -0.000000 10.627685
RightHandThumb1 -24.326973 -0.000000 -32.862282
LeftUpLeg -9.902650 9.280613 5.327080
LeftLeg 14.135591 -0.000000 -0.000000
LeftFoot -20.825599 25.985957 -14.233724
LeftToeBase 22.347602 -0.000000 -0.000000
RightUpLeg -0.046728 -2.326273 3.414844
RightLeg -3.834673 -0.000000 0.000000
RightFoot -20.107015 -23.822214 14.224388
RightToeBase 24.653950 -0.000000 -0.000000
1199
root 23.766849 35.628984 -22.869498 -173.284512 -1.319693 -179.271918
Spine -15.024102 3.169462 -4.497722
Head 7.205919 -2.743260 5.432310
LeftShoulder -5.287501 -27.426816 8.403813
LeftArm 7.537404 19.371178 -20.181054
LeftForeArm 4.837519 -0.000000 1.895015
LeftHand -3.390410 -0.000000 -5.343678
LeftHandThumb1 -26.253704 0.000000 33.147579
RightShoulder -9.091838 -12.057333 1.078478
RightArm 15.013810 10.774984 27.435057
RightForeArm -32.463183 -0.000000 7.794100
RightHand -0.507770 -0.000000 10.673076
RightHandThumb1 -24.326973 -0.000000 -32.862282
LeftUpLeg -9.673899 9.113488 5.199355
LeftLeg 13.322691 -0.000000 -0.000000
LeftFoot -20.637788 26.514874 -14.054663
LeftToeBase 22.657516 -0.000000 -0.000000
RightUpLeg -0.216647 -2.311485 3.353922
RightLeg -3.738763 -0.000000 0.000000
RightFoot -20.244557 -23.848413 14.473759
RightToeBase 24.548699 -0.000000 -0.000000
1200
root 23.733795 35.634516 -22.900632 -173.179891 -1.305196 -179.283680
Spine -15.216647 3.111951 -4.447178
Head 7.275132 -2.723070 5.535215
LeftShoulder -5.437751 -27.525532 8.956694
LeftArm 7.656414 18.903207 -19.179244
LeftForeArm 5.197080 -0.000000 1.804090
LeftHand -3.416206 0.000000 -4.920496
LeftHandThumb1 -26.253704 0.000000 33.147579
RightShoulder -9.281720 -12.059849 0.798268
RightArm 14.731335 11.910796 26.448149
RightForeArm -32.632577 -0.000000 7.585410
RightHand -0.485820 -0.000000 10.759707
RightHandThumb1 -24.326973 -0.000000 -32.862282
LeftUpLeg -9.341380 9.036503 5.079994
LeftLeg 12.493081 -0.000000 -0.000000
LeftFoot -20.462836 26.949944 -13.798865
LeftToeBase 22.710685 -0.000000 -0.000000
RightUpLeg -0.325478 -2.212873 3.294811
RightLeg -3.624471 -0.000000 0.000000
RightFoot -20.398392 -23.891244 14.722710
RightToeBase 24.517795 -0.000000 -0.000000
1201
root 23.699474 35.643646 -22.928900 -172.973809 -1.267672 -179.341384
Spine -15.555566 3.156065 -4.511657
Head 7.384411 -2.830613 5.671722
LeftShoulder -5.449639 -27.661979 9.486321
LeftArm 7.673249 18.459579 -18.245351
LeftForeArm 5.640111 0.000000 1.821287
LeftHand -3.551982 -0.000000 -4.528852
LeftHandThumb1 -26.253704 0.000000 33.147579
RightShoulder -9.570232 -12.033293 0.543899
RightArm 14.432424 12.950789 25.521450
RightForeArm -32.877049 -0.000000 7.340083
RightHand -0.555343 0.000000 10.524238
RightHandThumb1 -24.326973 -0.000000 -32.862282
LeftUpLeg -9.107682 8.989186 4.901134
LeftLeg 11.679549 -0.000000 -0.000000
LeftFoot -20.292645 27.372356 -13.796312
LeftToeBase 22.638358 -0.000000 -0.000000
RightUpLeg -0.571710 -2.109786 3.187417
RightLeg -3.450782 -0.000000 0.000000
RightFoot -20.550493 -23.919778 14.900733
RightToeBase 24.462636 -0.000000 -0.000000
1202
root 23.663293 35.650525 -22.961729 -172.831560 -1.192881 -179.365056
Spine -15.798942 3.159694 -4.506356
Head 7.424756 -2.784838 5.813926
LeftShoulder -5.604997 -27.821129 10.063908
LeftArm 7.756744 18.142110 -17.310526
LeftForeArm 5.802074 -0.000000 1.739692
LeftHand -3.554644 -0.000000 -4.420313
LeftHandThumb1 -26.253704 0.000000 33.147579
RightShoulder -9.746264 -11.885293 0.221812
RightArm 14.057274 13.992557 24.640183
RightForeArm -32.980416 -0.000000 7.235200
RightHand -0.815328 -0.000000 10.515837
RightHandThumb1 -24.326973 -0.000000 -32.862282
LeftUpLeg -8.812861 9.045546 4.777507
LeftLeg 10.941711 -0.000000 -0.000000
LeftFoot -20.141876 27.660491 -13.766221
LeftToeBase 22.616970 -0.000000 -0.000000
RightUpLeg -0.748930 -1.982329 3.104211
RightLeg -3.283609 -0.000000 0.000000
RightFoot -20.685763 -23.917925 15.101565
RightToeBase 24.424090 -0.000000 -0.000000
1203
root 23.625777 35.659151 -22.987780 -172.604458 -1.113950 -179.403515
Spine -16.130752 3.210909 -4.542618
Head 7.450333 -2.775239 5.943123
LeftShoulder -5.763348 -27.930351 10.632180
LeftArm 7.914141 17.738618 -16.459835
LeftForeArm 5.821451 0.000000 1.620254
LeftHand -3.585995 0.000000 -3.955813
LeftHandThumb1 -26.253704 0.000000 33.147579
RightShoulder -10.019953 -11.724608 -0.096060
RightArm 13.761081 14.954684 23.804821
RightForeArm -33.067712 0.000000 7.031843
RightHand -0.739678 -0.000000 10.381900
RightHandThumb1 -24.326973 -0.000000 -32.862282
LeftUpLeg -8.703439 9.325670 4.604281
LeftLeg 10.375412 -0.000000 -0.000000
LeftFoot -19.961384 27.737409 -13.682882
LeftToeBase 22.587546 -0.000000 -0.000000
RightUpLeg -1.039915 -1.893317 3.009224
RightLeg -3.083559 -0.000000 0.000000
RightFoot -20.799315 -23.902543 15.239414
RightToeBase 24.427084 -0.000000 -0.000000
1204
root 23.580295 35.668420 -23.016332 -172.410296 -1.055488 -179.504825
Spine -16.427210 3.205696 -4.629167
Head 7.524302 -2.816095 6.026512
LeftShoulder -5.934164 -28.096903 11.217826
LeftArm 7.996500 17.222362 -15.666856
LeftForeArm 5.861884 -0.000000 1.557433
LeftHand -3.822102 -0.000000 -4.028354
LeftHandThumb1 -26.253704 0.000000 33.147579
RightShoulder -10.182991 -11.535081 -0.433185
RightArm 13.333199 16.013922 23.009423
RightForeArm -33.268805 -0.000000 6.953294
RightHand -0.886277 -0.000000 10.238719
RightHandThumb1 -24.326973 -0.000000 -32.862282
LeftUpLeg -8.419521 9.231787 4.408740
LeftLeg 9.572437 -0.000000 -0.000000
LeftFoot -19.757511 27.987787 -13.688484
LeftToeBase 22.576306 -0.000000 -0.000000
RightUpLeg -1.371019 -2.078109 2.838701
RightLeg -2.733027 -0.000000 0.000000
RightFoot -20.950157 -23.608873 15.290875
RightToeBase 24.473773 -0.000000 -0.000000
1205
root 23.545271 35.677468 -23.047888 -172.274895 -0.960851 -179.544743
Spine -16.648384 3.298723 -4.716824
Head 7.560819 -2.896257 6.209983
LeftShoulder -6.035878 -28.220117 11.783113
LeftArm 8.082946 16.573460 -14.898882
LeftForeArm 6.006365 -0.000000 1.502813
LeftHand -3.886255 -0.000000 -3.557919
LeftHandThumb1 -26.253704 0.000000 33.147579
RightShoulder -10.384551 -11.394328 -0.674086
RightArm 12.955013 16.952872 22.169336
RightForeArm -33.211510 -0.000000 6.750555
RightHand -1.061372 -0.000000 9.909153
RightHandThumb1 -24.326973 -0.000000 -32.862282
LeftUpLeg -8.224764 9.649555 4.255165
LeftLeg 9.033817 -0.000000 -0.000000
LeftFoot -19.595500 27.828207 -13.748068
LeftToeBase 22.469482 -0.000000 -0.000000
RightUpLeg -1.573213 -2.038548 2.743604
RightLeg -2.513749 -0.000000 0.000000
RightFoot -21.061461 -23.538997 15.444131
RightToeBase 24.418117 -0.000000 -0.000000
1206
root 23.504748 35.684982 -23.082840 -172.194896 -0.856861 -179.584808
Spine -16.806173 3.350792 -4.738326
Head 7.605389 -2.867349 6.309193
LeftShoulder -6.190439 -28.428949 12.320013
LeftArm 8.121110 15.976343 -14.162850
LeftForeArm 6.238865 -0.000000 1.405806
LeftHand -3.926687 -0.000000 -3.235076
LeftHandThumb1 -26.253704 0.000000 33.147579
RightShoulder -10.537849 -11.312564 -1.003727
RightArm 12.639241 18.070516 21.452181
RightForeArm -33.451192 -0.000000 6.639469
RightHand -1.473647 -0.000000 9.801945
RightHandThumb1 -24.326973 -0.000000 -32.862282
LeftUpLeg -7.963148 10.121699 4.117431
LeftLeg 8.488731 -0.000000 -0.000000
LeftFoot -19.456128 27.527979 -13.835564
LeftToeBase 22.429163 -0.000000 -0.000000
RightUpLeg -1.665275 -1.989741 2.637351
RightLeg -2.395050 -0.000000 0.000000
RightFoot -21.189006 -23.469363 15.654295
RightToeBase 24.373828 -0.000000 -0.000000
1207
root 23.463394 35.692716 -23.113825 -172.011144 -0.736254 -179.629487
Spine -17.084049 3.462852 -4.806627
Head 7.621922 -2.953354 6.412907
LeftShoulder -6.323852 -28.610329 12.862660
LeftArm 8.182293 15.420614 -13.466396
LeftForeArm 6.398712 -0.000000 1.352516
LeftHand -3.983220 -0.000000 -2.830473
LeftHandThumb1 -26.253704 0.000000 33.147579
RightShoulder -10.700566 -11.142873 -1.296280
RightArm 12.189826 18.934093 20.618480
RightForeArm -33.497010 -0.000000 6.537514
RightHand -1.673421 0.000000 9.743489
RightHandThumb1 -24.326973 -0.000000 -32.862282
LeftUpLeg -7.738782 10.451520 3.968339
LeftLeg 7.815889 -0.000000 -0.000000
LeftFoot -19.249491 27.401017 -13.854271
LeftToeBase 22.380322 -0.000000 -0.000000
RightUpLeg -1.870102 -2.011072 2.528751
RightLeg -2.272897 -0.000000 0.000000
RightFoot -21.234589 -23.328011 15.769000
RightToeBase 24.309630 -0.000000 -0.000000
1208
root 23.420150 35.697067 -23.149847 -171.932403 -0.662124 -179.674585
Spine -17.233223 3.517677 -4.827558
Head 7.688612 -3.035948 6.394509
LeftShoulder -6.497391 -28.793282 13.403184
LeftArm 8.247373 14.783553 -12.849395
LeftForeArm 6.560487 -0.000000 1.283313
LeftHand -4.136137 -0.000000 -2.485526
LeftHandThumb1 -26.253704 0.000000 33.147579
RightShoulder -10.865780 -10.996212 -1.661916
RightArm 11.890409 19.796573 19.911949
RightForeArm -33.787024 0.000000 6.279830
RightHand -1.657454 -0.000000 9.576495
RightHandThumb1 -24.326973 -0.000000 -32.862282
LeftUpLeg -7.409316 10.789703 3.849072
LeftLeg 7.148385 -0.000000 -0.000000
LeftFoot -19.051297 27.176100 -13.829004
LeftToeBase 22.222348 -0.000000 -0.000000
RightUpLeg -1.970687 -2.150302 2.417821
RightLeg -2.124764 -0.000000 0.000000
RightFoot -21.290245 -23.107468 15.796577
RightToeBase 24.331957 -0.000000 -0.000000
1209
root 23.378890 35.700184 -23.181130 -171.815976 -0.594254 -179.699707
Spine -17.420955 3.616657 -4.835186
Head 7.739955 -3.084328 6.390100
LeftShoulder -6.626030 -28.969397 13.887616
LeftArm 8.339176 14.266247 -12.238656
LeftForeArm 6.741168 -0.000000 1.217856
LeftHand -4.334850 -0.000000 -2.006259
LeftHandThumb1 -26.253704 0.000000 33.147579
RightShoulder -11.023411 -10.863059 -2.047043
RightArm 11.435128 20.681187 19.216777
RightForeArm -34.072125 0.000000 6.269428
RightHand -1.780747 -0.000000 9.532125
RightHandThumb1 -24.326973 -0.000000 -32.862282
LeftUpLeg -7.148610 11.192070 3.742111
LeftLeg 6.530687 -0.000000 -0.000000
LeftFoot -18.855601 26.820580 -13.774575
LeftToeBase 22.435935 -0.000000 -0.000000
RightUpLeg -2.106891 -2.272146 2.331607
RightLeg -2.001861 -0.000000 0.000000
RightFoot -21.302607 -22.950902 15.845781
RightToeBase 24.208570 -0.000000 -0.000000
1210
root 23.332122 35.701127 -23.220038 -171.743119 -0.567883 -179.725964
Spine -17.567684 3.629022 -4.783409
Head 7.817920 -3.119724 6.273129
LeftShoulder -6.761147 -29.137915 14.302610
LeftArm 8.357816 13.700174 -11.604713
LeftForeArm 6.987507 -0.000000 1.144708
LeftHand -4.305744 -0.000000 -1.652673
LeftHandThumb1 -26.253704 0.000000 33.147579
RightShoulder -11.131082 -10.660475 -2.473875
RightArm 11.023808 21.286095 18.486887
RightForeArm -34.299923 0.000000 6.185031
RightHand -1.933336 0.000000 9.414590
RightHandThumb1 -24.326973 -0.000000 -32.862282
LeftUpLeg -6.825160 11.416495 3.664948
LeftLeg 5.904111 -0.000000 -0.000000
LeftFoot -18.695970 26.519928 -13.744132
LeftToeBase 22.355893 -0.000000 -0.000000
RightUpLeg -2.137405 -2.544912 2.244057
RightLeg -1.983435 -0.000000 0.000000
RightFoot -21.333120 -22.620788 15.906992
RightToeBase 24.359193 -0.000000 -0.000000
